<svg xmlns="http://www.w3.org/2000/svg" xml:space="preserve" width="160" height="138" viewBox="0 0 800 693.71503"><path d="M480.466 375.096H261.341v75.624h219.125z" style="fill:#000;fill-opacity:1;fill-rule:nonzero;stroke:none" transform="matrix(1.83007 0 0 -1.83007 -159.191 825.282)" /><path d="m0 0-43.662-75.624h87.324Z" style="fill:#000;fill-opacity:1;fill-rule:nonzero;stroke:none" transform="matrix(1.83007 0 0 -1.83007 319.081 .432)" /><path d="m0 0-43.662 75.624h87.324Z" style="fill:#000;fill-opacity:1;fill-rule:nonzero;stroke:none" transform="matrix(1.83007 0 0 -1.83007 720.096 138.83)" /><path d="m0 0 109.563 189.768 65.492-37.812L65.493-37.812Z" style="fill:#000;fill-opacity:1;fill-rule:nonzero;stroke:none" transform="matrix(1.83007 0 0 -1.83007 319.081 555.318)" /><path d="m0 0-43.662 75.624L-87.323 0Z" style="fill:#000;fill-opacity:1;fill-rule:nonzero;stroke:none" transform="matrix(1.83007 0 0 -1.83007 639.445 277.228)" /><path d="M0 0h87.323L43.662-75.624Z" style="fill:#000;fill-opacity:1;fill-rule:nonzero;stroke:none" transform="matrix(1.83007 0 0 -1.83007 319.081 555.318)" /><path d="m0 0-81.02 140.331 65.492 37.812L65.493 37.812Z" style="fill:#000;fill-opacity:1;fill-rule:nonzero;stroke:none" transform="matrix(1.83007 0 0 -1.83007 188.224 326.015)" /><path d="M0 0h-87.323l43.661-75.624z" style="fill:#000;fill-opacity:1;fill-rule:nonzero;stroke:none" transform="matrix(1.83007 0 0 -1.83007 159.807 0)" /><path d="m0 0 43.662 75.624L87.323 0Z" style="fill:#000;fill-opacity:1;fill-rule:nonzero;stroke:none" transform="matrix(1.83007 0 0 -1.83007 188.224 326.015)" /></svg>